<svg id="Layer_1" data-name="Layer 1" xmlns="http://www.w3.org/2000/svg" viewBox="0 0 300 293.98"><defs><style>.cls-1{fill:#fff;}</style></defs><title>Waverly-Homepage</title><path class="cls-1" d="M150,0A147,147,0,0,0,13.45,92.56l13.06,0c12.05,0,23.86,9.22,26.33,20.51L69.4,188.75c2,9.1,11.6,16.52,21.4,16.54h0c4.66,0,8.59-1.68,11.06-4.75a12.36,12.36,0,0,0,2.19-10.63L87.16,112.54a17.3,17.3,0,0,1,3.19-14.88c3.4-4.21,8.86-6.63,15-6.63h.05c12,0,23.85,9.22,26.32,20.51l16.95,77.37c2,9.1,11.59,16.52,21.4,16.54h0c4.67,0,8.6-1.69,11.07-4.75a12.36,12.36,0,0,0,2.18-10.63l-21-95.85,4.94-1.09,21,95.86a17.32,17.32,0,0,1-3.19,14.88c-3.4,4.22-8.87,6.63-15,6.63h0c-12.05,0-23.86-9.22-26.33-20.51l-16.94-77.37c-2-9.1-11.59-16.52-21.4-16.54h0c-4.67,0-8.6,1.69-11.07,4.75a12.37,12.37,0,0,0-2.19,10.63L109,188.83a17.29,17.29,0,0,1-3.19,14.88c-3.4,4.22-8.86,6.63-15,6.63h0c-12,0-23.85-9.22-26.32-20.51L47.9,114.18c-2-9.1-11.59-16.52-21.4-16.54l-14.95,0A147,147,0,1,0,150,0Z"/></svg>